<?xml version="1.0" encoding="UTF-8" standalone="no"?>
<!-- Created with Inkscape (http://www.inkscape.org/) -->

<svg
   xmlns:dc="http://purl.org/dc/elements/1.1/"
   xmlns:cc="http://creativecommons.org/ns#"
   xmlns:rdf="http://www.w3.org/1999/02/22-rdf-syntax-ns#"
   xmlns:svg="http://www.w3.org/2000/svg"
   xmlns="http://www.w3.org/2000/svg"
   xmlns:xlink="http://www.w3.org/1999/xlink"
   xmlns:sodipodi="http://sodipodi.sourceforge.net/DTD/sodipodi-0.dtd"
   xmlns:inkscape="http://www.inkscape.org/namespaces/inkscape"
   width="158.75mm"
   height="158.75mm"
   viewBox="0 0 158.75 158.75"
   version="1.1"
   id="svg8"
   inkscape:version="0.92.1 r15371"
   sodipodi:docname="hamburguer.svg"
   inkscape:export-filename="../../Assets/Textures/Food/hamburguer.png"
   inkscape:export-xdpi="96"
   inkscape:export-ydpi="96">
  <defs
     id="defs2">
    <linearGradient
       id="linearGradient4548"
       inkscape:collect="always">
      <stop
         id="stop4544"
         offset="0"
         style="stop-color:#b3ddb3;stop-opacity:1" />
      <stop
         id="stop4546"
         offset="1"
         style="stop-color:#d3f6d3;stop-opacity:0;" />
    </linearGradient>
    <linearGradient
       inkscape:collect="always"
       id="linearGradient4540">
      <stop
         style="stop-color:#85cd85;stop-opacity:1;"
         offset="0"
         id="stop4536" />
      <stop
         style="stop-color:#42ae42;stop-opacity:1"
         offset="1"
         id="stop4538" />
    </linearGradient>
    <linearGradient
       inkscape:collect="always"
       id="linearGradient4520">
      <stop
         style="stop-color:#d3f6d3;stop-opacity:1;"
         offset="0"
         id="stop4516" />
      <stop
         style="stop-color:#d3f6d3;stop-opacity:0;"
         offset="1"
         id="stop4518" />
    </linearGradient>
    <linearGradient
       inkscape:collect="always"
       id="linearGradient4495">
      <stop
         style="stop-color:#b78a70;stop-opacity:1"
         offset="0"
         id="stop4491" />
      <stop
         style="stop-color:#dab299;stop-opacity:1"
         offset="1"
         id="stop4493" />
    </linearGradient>
    <radialGradient
       inkscape:collect="always"
       xlink:href="#linearGradient4495"
       id="radialGradient4497"
       cx="82.78713226318359"
       cy="83.83990478515625"
       fx="82.78713226318359"
       fy="83.83990478515625"
       r="31.5785961151123"
       gradientUnits="userSpaceOnUse"
       gradientTransform="matrix(0.8703638170115118,-3.764751738083395e-15,3.764751738083395e-15,0.8703638170115118,10.73220782716182,10.86868523846579)" />
    <linearGradient
       inkscape:collect="always"
       xlink:href="#linearGradient4548"
       id="linearGradient4522"
       x1="298.2258605957031"
       y1="307.9227905273438"
       x2="298.2258605957031"
       y2="188.6982269287109"
       gradientUnits="userSpaceOnUse" />
    <linearGradient
       inkscape:collect="always"
       xlink:href="#linearGradient4520"
       id="linearGradient4534"
       gradientUnits="userSpaceOnUse"
       x1="298.2258605957031"
       y1="307.9227905273438"
       x2="298.2258605957031"
       y2="188.6982269287109" />
    <radialGradient
       inkscape:collect="always"
       xlink:href="#linearGradient4540"
       id="radialGradient4542"
       cx="298.0034881464176"
       cy="219.9775477091151"
       fx="298.0034881464176"
       fy="219.9775477091151"
       r="76.50428763654503"
       gradientTransform="matrix(0.9999999999999998,0,0,1.097739638306916,0,-21.50052594873116)"
       gradientUnits="userSpaceOnUse" />
  </defs>
  <sodipodi:namedview
     id="base"
     pagecolor="#ffffff"
     bordercolor="#666666"
     borderopacity="1.0"
     inkscape:pageopacity="0.0"
     inkscape:pageshadow="2"
     inkscape:zoom="0.9999999999999978"
     inkscape:cx="278.4631687266246"
     inkscape:cy="266.6958922835281"
     inkscape:document-units="mm"
     inkscape:current-layer="layer1"
     showgrid="false"
     inkscape:snap-page="true"
     inkscape:window-width="1920"
     inkscape:window-height="1013"
     inkscape:window-x="-9"
     inkscape:window-y="-9"
     inkscape:window-maximized="1" />
  <metadata
     id="metadata5">
    <rdf:RDF>
      <cc:Work
         rdf:about="">
        <dc:format>image/svg+xml</dc:format>
        <dc:type
           rdf:resource="http://purl.org/dc/dcmitype/StillImage" />
        <dc:title></dc:title>
      </cc:Work>
    </rdf:RDF>
  </metadata>
  <g
     inkscape:label="Layer 1"
     inkscape:groupmode="layer"
     id="layer1"
     transform="translate(-60.32499999999998,27.37916698455814)">
    <rect
       style="opacity:1;vector-effect:none;fill:url(#radialGradient4497);fill-opacity:1;stroke:none;stroke-width:3.9784059525;stroke-linecap:round;stroke-linejoin:round;stroke-miterlimit:4;stroke-dasharray:none;stroke-dashoffset:0;stroke-opacity:1;paint-order:markers fill stroke"
       id="rect4485"
       width="63.15719223022461"
       height="63.15719223022461"
       x="51.20853424072266"
       y="52.26130676269531"
       transform="matrix(0.2513569625155506,0,0,0.2513569625155506,47.45337837837837,-40.51541030952265)" />
    <rect
       transform="matrix(0.2513569625155506,0,0,0.2513569625155506,63.32837741952764,-40.51541030952262)"
       y="52.26130676269531"
       x="51.20853424072266"
       height="63.15719223022461"
       width="63.15719223022461"
       id="rect4489"
       style="opacity:1;vector-effect:none;fill:#f7f4d4;fill-opacity:1;stroke:none;stroke-width:3.9784059525;stroke-linecap:round;stroke-linejoin:round;stroke-miterlimit:4;stroke-dasharray:none;stroke-dashoffset:0;stroke-opacity:1;paint-order:markers fill stroke" />
    <rect
       style="opacity:1;vector-effect:none;fill:#85cd85;fill-opacity:1;stroke:none;stroke-width:3.9784059525;stroke-linecap:round;stroke-linejoin:round;stroke-miterlimit:4;stroke-dasharray:none;stroke-dashoffset:0;stroke-opacity:1;paint-order:markers fill stroke"
       id="rect4499"
       width="63.15719223022461"
       height="63.15719223022461"
       x="51.20853424072266"
       y="52.26130676269531"
       transform="matrix(0.2513569625155506,0,0,0.2513569625155506,79.20337646067692,-40.51541030952262)" />
    <rect
       transform="matrix(0.2513569625155506,0,0,0.2513569625155506,95.0783755018262,-40.51541030952262)"
       y="52.26130676269531"
       x="51.20853424072266"
       height="63.15719223022461"
       width="63.15719223022461"
       id="rect4501"
       style="opacity:1;vector-effect:none;fill:#ffffaa;fill-opacity:1;stroke:none;stroke-width:3.9784059525;stroke-linecap:round;stroke-linejoin:round;stroke-miterlimit:4;stroke-dasharray:none;stroke-dashoffset:0;stroke-opacity:1;paint-order:markers fill stroke" />
    <rect
       style="opacity:1;vector-effect:none;fill:#c28a60;fill-opacity:1;stroke:none;stroke-width:3.9784059525;stroke-linecap:round;stroke-linejoin:round;stroke-miterlimit:4;stroke-dasharray:none;stroke-dashoffset:0;stroke-opacity:1;paint-order:markers fill stroke"
       id="rect4503"
       width="63.15719223022461"
       height="63.15719223022461"
       x="51.20853424072266"
       y="52.26130676269531"
       transform="matrix(0.2513569625155506,0,0,0.2513569625155506,110.9533745429755,-40.51541030952262)" />
    <rect
       style="opacity:1;vector-effect:none;fill:#f5e0b0;fill-opacity:1;stroke:none;stroke-width:3.9784059525;stroke-linecap:round;stroke-linejoin:round;stroke-miterlimit:4;stroke-dasharray:none;stroke-dashoffset:0;stroke-opacity:1;paint-order:markers fill stroke"
       id="rect4505"
       width="63.15719223022461"
       height="63.15719223022461"
       x="51.20853424072266"
       y="52.26130676269531"
       transform="matrix(0.2513569625155506,0,0,0.2513569625155506,126.8283735841248,-40.51541030952262)" />
    <rect
       transform="matrix(0.2513569625155506,0,0,0.2513569625155506,142.7033726252741,-40.51541030952262)"
       y="52.26130676269531"
       x="51.20853424072266"
       height="63.15719223022461"
       width="63.15719223022461"
       id="rect4507"
       style="opacity:1;vector-effect:none;fill:#e0ca9a;fill-opacity:1;stroke:none;stroke-width:3.9784059525;stroke-linecap:round;stroke-linejoin:round;stroke-miterlimit:4;stroke-dasharray:none;stroke-dashoffset:0;stroke-opacity:1;paint-order:markers fill stroke" />
    <g
       id="g4526">
      <path
         sodipodi:nodetypes="aaasssaaaaaaaaaaa"
         inkscape:connector-curvature="0"
         id="path4511"
         d="m 374.4999999999989,217.2195121987014 c -0.6791453532346,16.0576925335306 -33.2961385699527,18.1144993852537 -34.0173979314623,34.170355414929 -0.2651220835461,5.9018464520064 12.8664837704295,7.9271263368325 11.3276220658899,13.6309834455394 -3.381897718318,12.5351493799889 -35.2628180036135,10.8340423100969 -36.5834282841577,13.3700259678172 -2.066440734747,3.9682107660163 5.5706426030205,25.4173882984098 -15.7267958494783,25.5674924501203 -24.3656295418538,0.1717287344882 -16.8467104215199,-22.5742416582018 -19.580332597516,-27.3272490391888 -1.1700451113515,-2.0343824758137 -36.3558752997571,-9.0789438537023 -33.2784740811751,-22.019286608885 1.1324730724605,-4.7620016623655 13.1036087918822,2.943279949703 14.5830395880887,-1.7226004186149 5.3788107688901,-16.9638807275169 -39.4111476550753,-17.8762720731163 -39.7242329101884,-35.6697212117172 -0.1078531186863,-6.1295731767729 10.7282829744576,-7.170760140416 13.2436418254725,-12.7614908149563 5.8691775453331,-13.0450535611554 -9.8432377386624,-34.5470230084144 1.7860411958687,-42.876521128645 10.2606539862572,-7.3492173136454 24.4629138428335,14.9961090305901 36.3245930756891,10.6841974909452 13.6489997453481,-4.9616313467287 9.6285173875641,-35.8611057789101 24.1457239024418,-36.2656977631923 16.507582760227,-0.4600634190759 13.4693031514081,36.6548851414617 29.7103972165637,39.6446694985826 10.4032883639705,1.9151165979605 17.3774046412339,-21.7073624641421 26.8266929531371,-16.9526773256459 11.0065187461785,5.5382510705183 -1.8829638446259,25.4491842630843 2.7642299698688,36.8605500656777 3.5573979026796,8.7353294037876 18.5972378193686,12.2434774620116 18.1986798609575,21.666969977234 z"
         style="opacity:1;vector-effect:none;fill:url(#radialGradient4542);fill-opacity:1;stroke:none;stroke-width:1.3507919312;stroke-linecap:round;stroke-linejoin:round;stroke-miterlimit:4;stroke-dasharray:none;stroke-dashoffset:0;stroke-opacity:1;paint-order:markers fill stroke"
         transform="matrix(0.7403065084463007,0,0,0.7403065084463012,-95.58271961820727,-103.9817511009694)" />
      <path
         transform="matrix(0.7403065084463007,0,0,0.7403065084463012,-95.58271961820727,-103.9817511009694)"
         style="opacity:1;vector-effect:none;fill:url(#linearGradient4522);fill-opacity:1;stroke:none;stroke-width:1.3507919312;stroke-linecap:round;stroke-linejoin:round;stroke-miterlimit:4;stroke-dasharray:none;stroke-dashoffset:0;stroke-opacity:1;paint-order:markers fill stroke"
         d="m 307.4486212551657,277.7302908781819 c -2.0664407347474,3.9682107660161 13.3488171981238,26.0779744472149 -7.9486212543751,26.2280785989254 -24.3656295418538,0.1717287344882 -10.482749389162,-22.5742416582018 -13.2163715651582,-27.3272490391888 -0.2402835576324,-0.4177861640807 -19.9085619150758,-17.1972633864842 -19.9085619150758,-17.1972633864842 0,0 19.9424189306189,4.9318005967605 20.0524364713764,2.8664117158044 0.562062706197,-10.5517543455845 1.7943736078081,-25.9200009027617 3.7546788073544,-42.9466873061252 0.6066470444141,-5.2691738945324 -41.3058689915982,-28.3509339588852 -41.3058689915982,-28.3509339588852 0,0 43.5445166375982,17.1181596672299 44.2510977403156,12.5978520495902 1.2035835331988,-7.6998490232202 3.6086444903062,-29.3477634554314 5.0984640098998,-36.7527534673616 5.8405532861019,13.3757512929489 9.1227396503916,28.3840976060691 10.8209603808596,42.9648796748747 0.460440141637,3.9533007932892 30.0514203033796,-3.0559405182589 30.0514203033796,-3.0559405182589 0,0 -28.6593191917122,21.0644013905776 -28.5766428327409,24.1099221936565 0.2746690732657,10.1178908578333 -0.055931270353,19.4421083477378 -0.5954129116434,27.1345761389495 -0.1853628945476,2.6430891931436 31.0290390455724,5.9721253824254 31.0290390455724,5.9721253824254 0,0 -31.980302442131,4.5948840550584 -32.1493148921055,6.0083813233853 -0.5624904372805,4.7042611161265 -1.1016846020542,7.257734702998 -1.3573023960607,7.7486005986925 z"
         id="path4514"
         inkscape:connector-curvature="0"
         sodipodi:nodetypes="ssscsscscscsscss" />
    </g>
    <g
       id="g4532"
       transform="matrix(0.8383237086893487,0.5451727794464208,0.5451727794464208,-0.8383237086893487,-6.903470600640212,43.68545621920443)">
      <path
         transform="matrix(0.7403065084463007,0,0,0.7403065084463012,-101.4035529515406,-103.9817511009694)"
         style="opacity:1;vector-effect:none;fill:#85cd85;fill-opacity:1;stroke:none;stroke-width:1.3507919312;stroke-linecap:round;stroke-linejoin:round;stroke-miterlimit:4;stroke-dasharray:none;stroke-dashoffset:0;stroke-opacity:1;paint-order:markers fill stroke"
         d="m 374.4999999999989,217.2195121987014 c -0.6791453532346,16.0576925335306 -33.2961385699527,18.1144993852537 -34.0173979314623,34.170355414929 -0.2651220835461,5.9018464520064 12.8664837704295,7.9271263368325 11.3276220658899,13.6309834455394 -3.381897718318,12.5351493799889 -35.2628180036135,10.8340423100969 -36.5834282841577,13.3700259678172 -2.066440734747,3.9682107660163 5.5706426030205,25.4173882984098 -15.7267958494783,25.5674924501203 -24.3656295418538,0.1717287344882 -16.8467104215199,-22.5742416582018 -19.580332597516,-27.3272490391888 -1.1700451113515,-2.0343824758137 -36.3558752997571,-9.0789438537023 -33.2784740811751,-22.019286608885 1.1324730724605,-4.7620016623655 13.1036087918822,2.943279949703 14.5830395880887,-1.7226004186149 5.3788107688901,-16.9638807275169 -39.4111476550753,-17.8762720731163 -39.7242329101884,-35.6697212117172 -0.1078531186863,-6.1295731767729 10.7282829744576,-7.170760140416 13.2436418254725,-12.7614908149563 5.8691775453331,-13.0450535611554 -9.8432377386624,-34.5470230084144 1.7860411958687,-42.876521128645 10.2606539862572,-7.3492173136454 24.4629138428335,14.9961090305901 36.3245930756891,10.6841974909452 13.6489997453481,-4.9616313467287 9.6285173875641,-35.8611057789101 24.1457239024418,-36.2656977631923 16.507582760227,-0.4600634190759 13.4693031514081,36.6548851414617 29.7103972165637,39.6446694985826 10.4032883639705,1.9151165979605 17.3774046412339,-21.7073624641421 26.8266929531371,-16.9526773256459 11.0065187461785,5.5382510705183 -1.8829638446259,25.4491842630843 2.7642299698688,36.8605500656777 3.5573979026796,8.7353294037876 18.5972378193686,12.2434774620116 18.1986798609575,21.666969977234 z"
         id="path4528"
         inkscape:connector-curvature="0"
         sodipodi:nodetypes="aaasssaaaaaaaaaaa" />
      <path
         sodipodi:nodetypes="ssscsscscscsscss"
         inkscape:connector-curvature="0"
         id="path4530"
         d="m 307.4486212551657,277.7302908781819 c -2.0664407347474,3.9682107660161 13.3488171981238,26.0779744472149 -7.9486212543751,26.2280785989254 -24.3656295418538,0.1717287344882 -10.482749389162,-22.5742416582018 -13.2163715651582,-27.3272490391888 -0.2402835576324,-0.4177861640807 -19.9085619150758,-17.1972633864842 -19.9085619150758,-17.1972633864842 0,0 19.9424189306189,4.9318005967605 20.0524364713764,2.8664117158044 0.562062706197,-10.5517543455845 1.7943736078081,-25.9200009027617 3.7546788073544,-42.9466873061252 0.6066470444141,-5.2691738945324 -41.3058689915982,-28.3509339588852 -41.3058689915982,-28.3509339588852 0,0 43.5445166375982,17.1181596672299 44.2510977403156,12.5978520495902 1.2035835331988,-7.6998490232202 3.6086444903062,-29.3477634554314 5.0984640098998,-36.7527534673616 5.8405532861019,13.3757512929489 9.1227396503916,28.3840976060691 10.8209603808596,42.9648796748747 0.460440141637,3.9533007932892 30.0514203033796,-3.0559405182589 30.0514203033796,-3.0559405182589 0,0 -28.6593191917122,21.0644013905776 -28.5766428327409,24.1099221936565 0.2746690732657,10.1178908578333 -0.055931270353,19.4421083477378 -0.5954129116434,27.1345761389495 -0.1853628945476,2.6430891931436 31.0290390455724,5.9721253824254 31.0290390455724,5.9721253824254 0,0 -31.980302442131,4.5948840550584 -32.1493148921055,6.0083813233853 -0.5624904372805,4.7042611161265 -1.1016846020542,7.257734702998 -1.3573023960607,7.7486005986925 z"
         style="opacity:1;vector-effect:none;fill:url(#linearGradient4534);fill-opacity:1;stroke:none;stroke-width:1.3507919312;stroke-linecap:round;stroke-linejoin:round;stroke-miterlimit:4;stroke-dasharray:none;stroke-dashoffset:0;stroke-opacity:1;paint-order:markers fill stroke"
         transform="matrix(0.7403065084463007,0,0,0.7403065084463012,-101.4035529515406,-103.9817511009694)" />
    </g>
  </g>
</svg>
