<?xml version="1.0" encoding="UTF-8" standalone="no"?>
<!-- Created with Inkscape (http://www.inkscape.org/) -->

<svg
   xmlns:dc="http://purl.org/dc/elements/1.1/"
   xmlns:cc="http://creativecommons.org/ns#"
   xmlns:rdf="http://www.w3.org/1999/02/22-rdf-syntax-ns#"
   xmlns:svg="http://www.w3.org/2000/svg"
   xmlns="http://www.w3.org/2000/svg"
   xmlns:sodipodi="http://sodipodi.sourceforge.net/DTD/sodipodi-0.dtd"
   xmlns:inkscape="http://www.inkscape.org/namespaces/inkscape"
   width="55.00000381469727mm"
   height="90.00000762939453mm"
   viewBox="0 0 55.00000381469727 90.00000762939453"
   version="1.1"
   id="svg4627"
   inkscape:version="0.92.1 r15371"
   sodipodi:docname="restaurant planes walls.svg">
  <defs
     id="defs4621" />
  <sodipodi:namedview
     id="base"
     pagecolor="#ffffff"
     bordercolor="#666666"
     borderopacity="1.0"
     inkscape:pageopacity="0.0"
     inkscape:pageshadow="2"
     inkscape:zoom="1.414213561253786"
     inkscape:cx="221.2725356745781"
     inkscape:cy="176.959574728855"
     inkscape:document-units="mm"
     inkscape:current-layer="layer1"
     showgrid="true"
     inkscape:snap-global="true"
     inkscape:window-width="1920"
     inkscape:window-height="1013"
     inkscape:window-x="-9"
     inkscape:window-y="-9"
     inkscape:window-maximized="1">
    <inkscape:grid
       type="xygrid"
       id="grid5172"
       units="cm"
       spacingx="1.000000002623867"
       spacingy="1.000000002623867"
       originx="-20.00000069981987"
       originy="-199.9999995806847" />
  </sodipodi:namedview>
  <metadata
     id="metadata4624">
    <rdf:RDF>
      <cc:Work
         rdf:about="">
        <dc:format>image/svg+xml</dc:format>
        <dc:type
           rdf:resource="http://purl.org/dc/dcmitype/StillImage" />
        <dc:title></dc:title>
      </cc:Work>
    </rdf:RDF>
  </metadata>
  <g
     inkscape:label="Layer 1"
     inkscape:groupmode="layer"
     id="layer1"
     transform="translate(-20.00000005247732,-6.999999185403113)">
    <path
       style="color:#000000;font-style:normal;font-variant:normal;font-weight:normal;font-stretch:normal;font-size:medium;line-height:normal;font-family:sans-serif;font-variant-ligatures:normal;font-variant-position:normal;font-variant-caps:normal;font-variant-numeric:normal;font-variant-alternates:normal;font-feature-settings:normal;text-indent:0;text-align:start;text-decoration:none;text-decoration-line:none;text-decoration-style:solid;text-decoration-color:#000000;letter-spacing:normal;word-spacing:normal;text-transform:none;writing-mode:lr-tb;direction:ltr;text-orientation:mixed;dominant-baseline:auto;baseline-shift:baseline;text-anchor:start;white-space:normal;shape-padding:0;clip-rule:nonzero;display:inline;overflow:visible;visibility:visible;opacity:1;isolation:auto;mix-blend-mode:normal;color-interpolation:sRGB;color-interpolation-filters:linearRGB;solid-color:#000000;solid-opacity:1;vector-effect:none;fill:#000000;fill-opacity:1;fill-rule:nonzero;stroke:none;stroke-width:3.7795276642;stroke-linecap:round;stroke-linejoin:round;stroke-miterlimit:4;stroke-dasharray:none;stroke-dashoffset:0;stroke-opacity:1;paint-order:fill markers stroke;color-rendering:auto;image-rendering:auto;shape-rendering:auto;text-rendering:auto;enable-background:accumulate"
       d="M 0 -1.890625 A 1.889952808475494 1.889952808475494 0 0 0 -1.890625 0 L -1.890625 226.771484375 L -1.890625 340.158203125 A 1.889952808475494 1.889952808475494 0 0 0 0 342.046875 L 56.693359375 342.046875 L 94.48828125 342.046875 L 132.283203125 342.046875 L 207.873046875 342.046875 A 1.889952808475494 1.889952808475494 0 0 0 208.0625 342.037109375 A 1.889952808475494 1.889952808475494 0 0 0 209.763671875 340.158203125 L 209.763671875 188.9765625 L 209.763671875 0 A 1.889952808475494 1.889952808475494 0 0 0 207.873046875 -1.890625 L 60.47265625 -1.890625 L 60.47265625 1.890625 L 205.984375 1.890625 L 205.984375 187.0859375 L 205.53125 187.0859375 L 205.53125 190.865234375 L 205.984375 190.865234375 L 205.984375 338.267578125 L 134.173828125 338.267578125 L 134.173828125 264.56640625 L 134.173828125 190.865234375 L 188.9765625 190.865234375 L 188.9765625 187.0859375 L 132.283203125 187.0859375 A 1.889952808475494 1.889952808475494 0 0 0 130.39453125 188.9765625 L 130.39453125 262.677734375 L 120.9453125 262.677734375 L 120.9453125 266.45703125 L 130.39453125 266.45703125 L 130.39453125 338.267578125 L 96.37890625 338.267578125 L 96.37890625 266.45703125 L 105.826171875 266.45703125 L 105.826171875 262.677734375 L 94.48828125 262.677734375 L 86.9296875 262.677734375 L 86.9296875 266.45703125 L 92.59765625 266.45703125 L 92.59765625 338.267578125 L 58.58203125 338.267578125 L 58.58203125 266.45703125 L 64.251953125 266.45703125 L 64.251953125 262.677734375 L 58.58203125 262.677734375 L 58.58203125 257.0078125 L 54.802734375 257.0078125 L 54.802734375 264.56640625 L 54.802734375 338.267578125 L 1.890625 338.267578125 L 1.890625 228.662109375 L 54.802734375 228.662109375 L 54.802734375 234.330078125 L 58.58203125 234.330078125 L 58.58203125 226.771484375 A 1.889952808475494 1.889952808475494 0 0 0 56.693359375 224.8828125 L 1.890625 224.8828125 L 1.890625 1.890625 L 37.794921875 1.890625 L 37.794921875 -1.890625 L 0 -1.890625 z "
       transform="matrix(0.2645833333333333,0,0,0.2645833333333333,20.00000005247732,6.999999185403114)"
       id="rect5591" />
  </g>
</svg>
